<?xml version="1.0" encoding="utf-8"?>
<!-- Generator: Adobe Illustrator 16.0.0, SVG Export Plug-In . SVG Version: 6.00 Build 0)  -->
<!DOCTYPE svg PUBLIC "-//W3C//DTD SVG 1.1//EN" "http://www.w3.org/Graphics/SVG/1.1/DTD/svg11.dtd">
<svg version="1.1" id="Layer_1" xmlns="http://www.w3.org/2000/svg" xmlns:xlink="http://www.w3.org/1999/xlink" x="0px" y="0px"
	 width="337.453px" height="103.168px" viewBox="0 0 337.453 103.168" enable-background="new 0 0 337.453 103.168"
	 xml:space="preserve">
<g>
	<path fill="#FFFFFF" d="M119.773,7.457c-2.221-0.317-6.822,0.159-9.519,2.697c-2.697,2.538-3.173,6.187-3.014,9.359
		c0.159,3.172,2.221,7.298,1.745,10.63c-0.476,3.33-3.173,3.489-6.98,2.854c-3.807-0.634-11.739-9.042-14.436-11.104
		c-2.697-2.062-11.263-7.615-13.801-8.726c-2.539-1.11-7.139-3.172-13.009-4.441c-5.87-1.269-12.056,0.317-19.354,1.269
		c-7.297,0.952-12.057,1.428-19.83,0.476C13.802,9.519,3.966,0.159,3.966,0.159c4.125,8.09,13.802,11.104,19.513,12.532
		c5.711,1.428,10.312,0,22.686-1.745c12.374-1.745,20.147,2.062,27.445,5.394c7.297,3.332,14.594,10.153,16.974,12.374
		c2.38,2.222,8.884,7.773,13.484,7.773s6.98-3.966,6.98-5.711c0-1.745-1.904-9.042-2.221-10.946
		c-0.317-1.903,0.317-4.601,2.221-6.821c1.903-2.221,4.6-3.014,6.345-3.173s5.87-0.159,9.994,3.49
		C126.594,10.629,121.994,7.773,119.773,7.457z"/>
	<path fill="#FFFFFF" d="M9.994,21.734c3.49,1.428,6.346,1.269,12.374,0.476c6.028-0.794,9.359-5.553,9.359-5.553
		s-3.172,1.428-6.663,2.222c-3.49,0.793-5.235,0.793-11.739,0.316C6.821,18.72,0,13.485,0,13.485
		C1.269,15.389,6.504,20.307,9.994,21.734z"/>
	<path fill="#FFFFFF" d="M31.728,26.176c-4.441,3.807-11.739,5.076-15.388,5.234c-3.649,0.16-14.277-0.475-14.277-0.475
		s4.125,1.744,7.456,2.221c3.332,0.476,10.47,0.158,12.374,0.158C23.797,33.314,31.093,30.776,31.728,26.176z"/>
	<path fill="#FFFFFF" d="M42.833,32.204c0,0-4.601,3.808-9.202,6.028c-4.6,2.221-7.297,3.331-13.801,3.331
		c9.201,0.952,11.581,0,14.753-1.586C37.756,38.391,42.833,32.204,42.833,32.204z"/>
	<path fill="#FFFFFF" d="M46.481,42.833c-5.394,3.966-9.677,4.283-9.677,4.283c4.283,0.476,9.677-1.428,11.105-2.855
		c1.428-1.428,5.394-6.663,5.394-6.663S51.875,38.867,46.481,42.833z"/>
	<path fill="#FFFFFF" d="M49.654,50.606c2.379,0.476,7.456-0.477,9.518-1.745c2.062-1.27,4.918-5.711,4.918-5.711
		s-2.538,1.903-6.504,4.601C53.62,50.447,49.654,50.606,49.654,50.606z"/>
	<path fill="#FFFFFF" d="M102.481,79.161c-0.952-4.283-2.062-8.091-2.697-12.688c-0.635-4.603,0.476-5.396-0.159-12.058
		c-0.635-6.664-6.028-8.25-6.028-8.25c3.649,3.332,4.442,9.043,4.918,12.374c0.476,3.332,0.476,8.25,0.793,11.738
		c0.317,3.49,1.586,12.852,2.538,16.342c0.952,3.488,2.538,7.771,2.379,13.959c1.745-1.428,1.428-4.123,1.428-7.771
		C105.653,89.159,103.433,83.443,102.481,79.161z"/>
	<path fill="#FFFFFF" d="M195.919,11.898c5.871,0.793,11.104,1.428,15.39,0.952c4.283-0.476,10.629-3.173,14.754-6.187
		C230.188,3.649,231.455,0,231.455,0s-4.124,3.332-7.615,6.029c-3.488,2.697-8.249,4.125-14.117,4.917
		c-5.871,0.793-12.217-0.635-16.022-0.952c-3.808-0.317-11.104-1.745-14.437-1.745s-9.201,1.11-13.485,3.014
		c-4.284,1.903-12.057,6.346-14.754,8.249c-2.696,1.903-7.139,6.028-9.994,9.519l7.298-3.332c1.586-2.221,5.235-4.759,10.312-8.09
		c5.076-3.332,13.96-5.87,19.195-6.822C183.068,9.836,190.05,11.105,195.919,11.898z"/>
	<path fill="#FFFFFF" d="M215.273,19.672c-4.442,0.158-11.739-2.697-11.739-2.697s1.271,1.586,3.808,3.173
		c2.538,1.587,5.235,2.696,10.153,2.696s7.772-1.269,10.47-2.696c2.697-1.427,7.456-6.98,7.456-6.98s-5.075,2.856-8.407,4.601
		C223.682,19.513,219.716,19.513,215.273,19.672z"/>
	<path fill="#FFFFFF" d="M210.038,29.508c-2.222-0.794-6.504-3.332-6.504-3.332s0.793,1.904,2.062,3.173
		c1.271,1.269,3.174,2.855,6.504,3.648c3.332,0.793,6.346,0.476,12.059,0.317c5.711-0.159,9.043-2.379,9.043-2.379
		s-6.506,0.316-11.898,0.475C215.908,31.57,212.259,30.301,210.038,29.508z"/>
	<path fill="#FFFFFF" d="M216.382,41.565c0,0-4.76-0.316-7.612-0.635c-2.855-0.318-6.028-1.905-8.408-3.332
		c-2.381-1.428-7.932-5.234-7.932-5.234s2.854,3.489,5.074,5.394c2.223,1.903,5.077,3.331,8.408,3.966
		C209.243,42.358,216.382,41.565,216.382,41.565z"/>
	<path fill="#FFFFFF" d="M171.488,43.468c0,0,2.854,4.283,4.601,5.234c1.746,0.952,6.347,2.062,9.202,1.904
		c0,0-3.648-0.635-7.298-2.697C174.343,45.847,171.488,43.468,171.488,43.468z"/>
	<path fill="#FFFFFF" d="M186.243,42.991c1.901,1.745,5.552,4.125,11.737,4.125c-3.33-0.635-6.662-2.697-9.043-4.125
		c-2.377-1.428-7.137-5.711-7.137-5.711C183.07,39.342,184.339,41.247,186.243,42.991z"/>
	<path fill="#FFFFFF" d="M183.016,63.327c4.387,0,7.401,1.098,9.319,2.103l1.828-6.121c-2.192-1.188-6.396-2.377-11.147-2.377
		c-14.438,0-23.76,9.961-23.76,23.575c0,13.615,8.681,22.662,22.021,22.662c5.939,0,10.602-1.553,12.703-2.56l-1.371-6.03
		c-2.284,1.006-5.301,2.103-9.868,2.103c-8.773,0-15.352-6.306-15.352-16.539C167.389,70.913,172.872,63.327,183.016,63.327z"/>
	<path fill="#FFFFFF" d="M232.354,75.023h0.004c0-8.864-3.291-18.094-16.905-18.094c-5.574,0-10.966,1.555-14.621,3.838l1.828,5.392
		c3.106-2.101,7.401-3.289,11.604-3.289c9.047-0.093,10.053,6.58,10.053,10.233v0.914c-17.088-0.092-26.592,5.758-26.592,16.447
		c0,6.398,4.567,12.703,13.522,12.703c6.305,0,11.147-3.105,13.522-6.58h0.274l0.729,5.574h7.22
		c-0.457-3.016-0.64-6.764-0.64-10.602V75.023z M224.499,87.27c0,0.82-0.092,1.734-0.365,2.56
		c-1.278,3.746-5.024,7.401-10.875,7.401c-4.021,0-7.491-2.377-7.491-7.678c0-8.59,9.959-10.143,18.731-9.961V87.27z"/>
	<path fill="#FFFFFF" d="M273.628,57.879c-0.68-0.66-1.528-0.99-2.547-0.99c-1.392,0-3.122,0.918-5.192,2.754
		c-4.312,3.844-8.181,8.469-11.609,13.875l2.213-9.143c0.445-1.906,0.669-3.08,0.669-3.523c0-0.438-0.179-0.805-0.534-1.092
		c-0.354-0.287-0.837-0.434-1.445-0.434c-1.729,0-4.209,0.873-7.441,2.617c-3.234,1.744-6.479,4.361-9.729,7.852l1.574,1.777
		c2.744-2.744,4.643-4.463,5.689-5.156c1.052-0.693,1.83-1.043,2.339-1.043c0.743,0,1.118,0.406,1.118,1.221
		c0,0.373-0.151,1.305-0.459,2.795c-1.287,6.029-2.795,12.398-4.521,19.105l-3.558,13.67h7.57l2.293-9.855
		c1.526-6.604,2.664-10.813,3.412-12.625c0.745-1.812,2.061-3.938,3.938-6.379c1.879-2.438,3.604-4.254,5.18-5.438
		c1.574-1.188,3.613-2.203,6.119-3.053c2.642-0.881,4.289-1.644,4.949-2.287c0.659-0.643,0.989-1.422,0.989-2.336
		C274.646,59.311,274.307,58.54,273.628,57.879z"/>
	<path fill="#FFFFFF" d="M294.992,56.838c-12.885,0-20.835,10.51-20.835,23.943c0,13.25,8.225,22.297,21.749,22.297
		c7.035,0,11.971-1.555,14.803-2.834l-1.462-5.666c-2.924,1.188-6.487,2.193-12.245,2.193c-8.041,0-14.895-4.479-15.077-15.354
		l30.979,0.092c0.183-0.913,0.272-2.19,0.272-3.838C313.177,69.542,309.43,56.838,294.992,56.838z M282.016,75.665
		c0.642-5.576,4.113-13.067,12.338-13.067c8.955,0,11.147,8.041,11.058,13.067H282.016z"/>
	<path fill="#FFFFFF" d="M336.539,58.788h-2.376l-2.376,6.549c-0.305,0.886-0.579,1.949-0.854,3.078h-0.061
		c-0.305-1.129-0.548-2.133-0.854-3.047l-2.376-6.58h-2.404l-0.944,12.125h1.767l0.457-7.312c0.062-1.099,0.03-2.134,0.062-3.291
		h0.091c0.274,1.127,0.579,2.315,0.884,3.291l2.468,7.157h1.4l2.528-6.977c0.366-1.066,0.729-2.347,1.036-3.474h0.092
		c0.03,1.188-0.03,2.347,0.03,3.291l0.485,7.312h1.858L336.539,58.788z"/>
	<polygon fill="#FFFFFF" points="314.636,60.34 318.322,60.34 318.322,70.913 320.15,70.913 320.15,60.34 323.866,60.34 
		323.866,58.788 314.636,58.788 	"/>
	<rect x="147.376" y="82.863" fill="#FFFFFF" width="9.836" height="8.777"/>
</g>
<path fill="#C6D4E0" d="M142.617,27.339"/>
<path fill="#304D81" d="M168.201,26.18l-1.085,3.447c-4.817,0.298-8.014,0.893-9.591,1.787c-1.023,0.596-1.875,1.49-2.558,2.68
	c-0.808,1.533-3.167,9.66-7.076,24.383c-1.274,4.853-4.526,18.105-9.752,39.767c2.978,0.979,6.744,1.403,11.297,1.274l-1.021,3.062
	c-1.362,0.043-4.084-0.127-8.169-0.51c-2.937-0.256-6.362-0.385-10.276-0.385c-5.404,0-10.362,0.403-14.872,1.213l0.766-3.383
	c4.681-0.724,8.234-1.658,10.659-2.81c0.595-0.297,1.063-0.658,1.404-1.084c0.638-0.767,1.329-2.31,2.074-4.627
	c0.744-2.32,3.287-11.797,7.627-28.437c1.276-4.811,3.872-15.318,7.787-31.531c-2.937-0.086-6.532,0.318-10.787,1.212l1.212-3.511
	c1.787-0.467,3.616-0.797,5.489-0.989c1.872-0.19,6.105-0.372,12.702-0.542C160.201,27.031,164.924,26.69,168.201,26.18z"/>
<path fill="#EB9532" d="M165.028,23.959l-1.085,3.447c-4.817,0.298-8.014,0.893-9.591,1.787c-1.023,0.596-1.876,1.49-2.558,2.68
	c-0.808,1.533-3.167,9.66-7.076,24.383c-1.275,4.852-4.526,18.105-9.753,39.766c2.978,0.979,6.744,1.402,11.297,1.275l-1.021,3.062
	c-1.362,0.041-4.085-0.129-8.17-0.51c-2.936-0.257-6.362-0.386-10.276-0.386c-5.404,0-10.362,0.404-14.872,1.214l0.766-3.384
	c4.681-0.724,8.234-1.658,10.659-2.81c0.596-0.297,1.063-0.657,1.404-1.084c0.638-0.768,1.33-2.309,2.075-4.627
	c0.744-2.319,3.287-11.797,7.627-28.438c1.277-4.807,3.872-15.317,7.787-31.529c-2.936-0.086-6.532,0.318-10.787,1.213l1.212-3.512
	c1.787-0.467,3.616-0.797,5.489-0.988c1.872-0.191,6.105-0.373,12.702-0.543C157.028,24.811,161.751,24.47,165.028,23.959z"/>
</svg>
